# xmcd
#
# Track frame offsets:
#	150
#	21095
#	40297
#	60174
#	74704
#	88291
#	105468
#	124619
#	146080
#	167347
#	185030
#	200420
#	219590
#	235691
#
# Disc length: 3405 seconds
# Revision: 0
# Processed by: cddbd v1.5.2PL0 Copyright (c) Steve Scherf et al.
# Submitted via: dBpowerAMP V12.0
#
DISCID=c60d4b0e
DTITLE=Thomas Quasthoff - Tell It Like It Is
DYEAR=2010
DGENRE=Blues
TTITLE0=I Can't Stand The Rain (Ann Peebles, Bernard Miller and Don Bryant)
TTITLE1=Lost Mind (Percy Mayfield)
TTITLE2=Have A Little Faith In Me (John Hiatt)
TTITLE3=Have A Talk With God (Stevie Wonder)
TTITLE4=The Seventh Son (Willie Dixon)
TTITLE5=Short People (Randy Newman)
TTITLE6=Please Send Me Someone To Love (Percy Mayfield)
TTITLE7=Kissing My Love (Bill Withers)
TTITLE8=Ain't No Sunshine (Bill Withers)
TTITLE9=Rainy Night In Georgia (Tony Joe White)
TTITLE10=The Whistleman (Michael Quasthoff)
TTITLE11=Rider In The Rain (Randy Newman)
TTITLE12=Tell It Like It Is (George Davis and Lee Diamond)
TTITLE13=Georgia On My Mind (Stuart Correll and Hoagy Carmichael)
EXTD=
EXTT0=
EXTT1=
EXTT2=
EXTT3=
EXTT4=
EXTT5=
EXTT6=
EXTT7=
EXTT8=
EXTT9=
EXTT10=
EXTT11=
EXTT12=
EXTT13=
PLAYORDER=
